HIERARCHY
ROOT Hips
{
	OFFSET 0.000000 0.000000 0.000000
	CHANNELS 6 Xposition Yposition Zposition Zrotation Yrotation Xrotation 
	JOINT LHipJoint
	{
		OFFSET 0.000000 0.000000 0.000000
		CHANNELS 3 Zrotation Yrotation Xrotation
		JOINT LeftUpLeg
		{
			OFFSET 8.178360 -10.767780 5.035740
			CHANNELS 3 Zrotation Yrotation Xrotation
			JOINT LeftLeg
			{
				OFFSET 14.688660 -40.356780 0.000000
				CHANNELS 3 Zrotation Yrotation Xrotation
				JOINT LeftFoot
				{
					OFFSET 15.373200 -42.237540 0.000000
					CHANNELS 3 Zrotation Yrotation Xrotation
					JOINT LeftToeBase
					{
						OFFSET 0.945840 -2.598660 13.935300
						CHANNELS 3 Zrotation Yrotation Xrotation
						End Site
						{
							OFFSET 0.000000 0.000000 0.000000
						}
					}
				}
			}
		}
	}
	JOINT RHipJoint
	{
		OFFSET 0.000000 0.000000 0.000000
		CHANNELS 3 Zrotation Yrotation Xrotation
		JOINT RightUpLeg
		{
			OFFSET -7.833120 -10.767780 5.035740
			CHANNELS 3 Zrotation Yrotation Xrotation
			JOINT RightLeg
			{
				OFFSET -15.255180 -41.913300 0.000000
				CHANNELS 3 Zrotation Yrotation Xrotation
				JOINT RightFoot
				{
					OFFSET -15.409560 -42.337380 0.000000
					CHANNELS 3 Zrotation Yrotation Xrotation
					JOINT RightToeBase
					{
						OFFSET -0.988380 -2.715540 14.178900
						CHANNELS 3 Zrotation Yrotation Xrotation
						End Site
						{
							OFFSET 0.000000 0.000000 0.000000
						}
					}
				}
			}
		}
	}
	JOINT LowerBack
	{
		OFFSET 0.000000 0.000000 0.000000
		CHANNELS 3 Zrotation Yrotation Xrotation
		JOINT Spine
		{
			OFFSET 0.169620 12.213540 -1.160280
			CHANNELS 3 Zrotation Yrotation Xrotation
			JOINT Spine1
			{
				OFFSET 0.340320 12.293100 -0.256500
				CHANNELS 3 Zrotation Yrotation Xrotation
				JOINT Neck
				{
					OFFSET 0.000000 0.000000 0.000000
					CHANNELS 3 Zrotation Yrotation Xrotation
					JOINT Neck1
					{
						OFFSET -0.325020 10.477440 1.032120
						CHANNELS 3 Zrotation Yrotation Xrotation
						JOINT Head
						{
							OFFSET 0.624420 10.568160 -0.743820
							CHANNELS 3 Zrotation Yrotation Xrotation
							End Site
							{
								OFFSET 0.000000 0.000000 0.000000
							}
						}
					}
				}
				JOINT LeftShoulder
				{
					OFFSET 0.000000 0.000000 0.000000
					CHANNELS 3 Zrotation Yrotation Xrotation
					JOINT LeftArm
					{
						OFFSET 20.174460 7.205340 -1.867260
						CHANNELS 3 Zrotation Yrotation Xrotation
						JOINT LeftForeArm
						{
							OFFSET 29.898000 -0.000000 -0.000000
							CHANNELS 3 Zrotation Yrotation Xrotation
							JOINT LeftHand
							{
								OFFSET 20.901360 -0.000000 -0.000000
								CHANNELS 3 Zrotation Yrotation Xrotation
								JOINT LeftFingerBase
								{
									OFFSET 0.000000 0.000000 0.000000
									CHANNELS 3 Zrotation Yrotation Xrotation
									JOINT LeftHandIndex1
									{
										OFFSET 4.291560 -0.000000 -0.000000
										CHANNELS 3 Zrotation Yrotation Xrotation
										End Site
										{
											OFFSET 0.000000 0.000000 0.000000
										}
									}
								}
								JOINT LThumb
								{
									OFFSET 0.000000 0.000000 0.000000
									CHANNELS 3 Zrotation Yrotation Xrotation
									End Site
									{
										OFFSET 0.000000 0.000000 0.000000
									}
								}
							}
						}
					}
				}
				JOINT RightShoulder
				{
					OFFSET 0.000000 0.000000 0.000000
					CHANNELS 3 Zrotation Yrotation Xrotation
					JOINT RightArm
					{
						OFFSET -18.819600 8.244300 -2.427900
						CHANNELS 3 Zrotation Yrotation Xrotation
						JOINT RightForeArm
						{
							OFFSET -31.451400 -0.000000 -0.000000
							CHANNELS 3 Zrotation Yrotation Xrotation
							JOINT RightHand
							{
								OFFSET -20.665020 -0.000000 -0.000000
								CHANNELS 3 Zrotation Yrotation Xrotation
								JOINT RightFingerBase
								{
									OFFSET 0.000000 0.000000 0.000000
									CHANNELS 3 Zrotation Yrotation Xrotation
									JOINT RightHandIndex1
									{
										OFFSET -3.735180 -0.000000 -0.000000
										CHANNELS 3 Zrotation Yrotation Xrotation
										End Site
										{
											OFFSET 0.000000 0.000000 0.000000
										}
									}
								}
								JOINT RThumb
								{
									OFFSET 0.000000 0.000000 0.000000
									CHANNELS 3 Zrotation Yrotation Xrotation
									End Site
									{
										OFFSET 0.000000 0.000000 0.000000
									}
								}
							}
						}
					}
				}
			}
		}
	}
}
MOTION
Frames:	10
Frame Time:	0.0333333
28.016274 108.527250 -7.998300 5.817914 -53.374315 -3.535123 -2.563714 1.113586 1.930682 -16.926927 -8.387730 -13.934863 5.823104 14.499729 47.435271 0.798923 -13.935726 1.265978 1.171000 -6.869000 -19.327700 0.456939 -1.154213 1.168916 15.566961 11.310048 -12.410807 -2.049643 -9.162007 28.046878 -1.919869 11.213952 -0.661082 -0.002500 0.323400 -0.888500 -2.369225 -4.526262 11.487380 5.144431 -6.162164 0.883794 9.006580 -3.018841 -6.109466 -15.521576 -22.153915 10.185023 11.937371 -38.908924 25.248454 2.115500 -18.228500 16.509700 -5.832662 -0.096481 -1.589599 -87.964404 11.184011 17.512603 18.248572 -25.893386 -5.073480 -1.052398 -2.399213 6.378989 18.008376 23.109073 8.377800 -7.125000 0.000000 0.000000 -11.970700 56.443300 -3.392700 5.490994 1.672054 -0.531351 78.038748 2.502354 16.927628 -21.107676 29.985896 -6.003174 0.450274 0.011517 -0.327397 -17.594617 7.072040 -2.288200 7.125000 0.000000 0.000000 6.395400 -22.587900 3.469400 
29.778594 108.494214 -9.202608 6.358922 -53.988334 -3.852530 -2.667000 1.293610 2.272541 -17.772129 -7.358376 -10.470653 5.262315 13.908562 45.347579 0.739612 -14.958604 2.800862 1.224200 -7.017500 -19.767400 0.388226 -1.155241 1.057796 14.863986 11.638899 -14.024104 -2.069341 -9.259967 28.251228 -1.951515 12.308363 1.006333 -0.001700 -0.264200 0.725800 -2.488728 -4.630206 10.891281 5.167928 -6.319066 0.783159 9.075258 -3.114096 -5.965733 -15.484590 -22.062972 10.292532 11.769181 -38.755750 25.206083 2.120100 -18.200500 16.354800 -5.851443 -0.122173 -1.579818 -87.957401 11.054860 17.944996 18.124223 -25.725910 -5.012938 -0.998979 -2.387389 6.554999 17.216676 22.847787 7.898700 -7.125000 0.000000 0.000000 -12.718600 55.995400 -3.470600 5.505914 1.636806 -0.541455 78.051365 2.227907 15.745484 -20.575374 29.359399 -5.715865 0.429127 -0.011709 0.629085 -16.941340 7.341518 -2.286200 7.125000 0.000000 0.000000 6.882100 -22.319200 3.779500 
31.638816 108.332640 -10.469988 7.344743 -54.378707 -4.506366 -2.817500 1.477643 2.648757 -18.885532 -6.510007 -6.649185 4.136281 12.712699 40.979547 0.669860 -15.877856 5.109737 0.991600 -6.337600 -17.767000 0.298459 -1.147507 0.929151 14.064348 12.227872 -16.203181 -2.224232 -9.613695 29.253862 -1.912218 12.814452 2.900832 -0.067900 -1.681700 4.626800 -3.250568 -4.792294 10.556897 5.164657 -6.642836 0.630589 9.533559 -3.266206 -5.949974 -15.261472 -21.957872 10.369732 11.477549 -38.596997 25.303372 2.064500 -18.153800 16.175200 -5.844199 -0.160149 -1.578836 -88.016479 10.968990 17.767502 18.219398 -25.855153 -5.064764 -1.035883 -2.366668 6.706054 17.694459 22.718771 8.093400 -7.125000 0.000000 0.000000 -12.118600 55.955500 -3.291500 5.514058 1.593912 -0.561993 78.083596 1.753416 15.322359 -20.284692 28.980329 -5.546345 0.457604 0.003601 0.304632 -17.760677 6.852891 -2.241300 7.125000 0.000000 0.000000 6.272500 -22.805800 3.370500 
33.589140 107.954226 -11.601018 7.707476 -54.697133 -4.757065 -3.010713 1.714799 3.023541 -20.181532 -7.010165 -1.986567 2.684276 10.960729 34.815352 0.688915 -14.829506 5.992588 1.060800 -6.548400 -18.384200 0.217572 -1.151909 0.794428 13.505612 13.077819 -18.122071 -2.419371 -10.021454 30.400657 -1.887666 12.761047 3.328512 -0.028100 -1.081600 2.973300 -3.251522 -4.992231 10.015411 5.149344 -6.896610 0.617829 9.481401 -3.437589 -5.648128 -15.370488 -21.855385 10.183799 11.393597 -38.536058 25.473097 2.030400 -18.126900 16.303500 -5.848739 -0.196113 -1.562285 -87.836269 10.557559 18.198371 18.404624 -26.088949 -5.175816 -0.963237 -2.383210 6.472558 16.962073 22.787021 7.746900 -7.125000 0.000000 0.000000 -12.980000 55.870100 -3.504000 5.507405 1.575629 -0.566185 78.095072 1.498692 14.273920 -19.965075 28.613027 -5.383881 0.432880 -0.010197 1.030869 -16.994370 6.988384 -2.183000 7.125000 0.000000 0.000000 6.848900 -22.687900 3.703000 
35.708244 107.477910 -12.968106 8.402427 -54.372491 -5.033637 -3.208801 1.916914 3.327245 -21.414594 -8.324435 1.979977 1.220337 8.755295 27.636500 0.690866 -15.177139 7.351716 0.675100 -5.254000 -14.634400 0.138738 -1.155098 0.686895 12.437937 14.144832 -20.409212 -2.646324 -10.467758 31.681285 -1.832276 12.392564 4.018498 -0.013000 -0.737000 2.025400 -3.886112 -5.329558 9.667083 5.101981 -7.425440 0.482042 9.824022 -3.710977 -5.503908 -15.087450 -21.728192 10.070567 11.307619 -38.384047 25.583018 2.009600 -18.046300 16.241300 -5.837374 -0.261128 -1.546131 -87.473914 9.887524 18.256536 18.631163 -26.384355 -5.296795 -1.053946 -2.355067 6.135404 18.360688 22.660207 8.400000 -7.125000 0.000000 0.000000 -11.343400 56.022900 -3.095600 5.509452 1.563335 -0.581436 78.675905 1.297716 12.687838 -19.866801 28.487796 -5.322908 0.439707 -0.018287 1.803745 -17.307705 6.967586 -2.219700 7.125000 0.000000 0.000000 6.614800 -22.694100 3.573700 
38.047188 107.133738 -14.433102 8.207903 -53.930477 -4.591225 -3.382293 2.064527 3.563122 -21.969648 -8.332362 4.233610 0.221286 6.907902 21.814202 0.867092 -12.096416 2.093081 0.873700 -5.959400 -16.666800 0.082019 -1.146000 0.604701 11.813582 14.586620 -22.369441 -2.651333 -10.553712 31.855248 -1.760799 12.154533 6.187872 -0.176300 -2.704800 7.458000 -4.045348 -5.636276 9.551055 5.146011 -7.843630 0.416405 10.082294 -3.944493 -5.406580 -15.086890 -21.680013 9.859355 11.166601 -38.428984 25.916156 1.914700 -18.041100 16.436100 -5.818488 -0.336744 -1.517973 -86.896573 8.880828 18.907717 18.896885 -26.717846 -5.437938 -1.222733 -2.308522 5.599255 20.880525 22.473032 9.598900 -7.125000 0.000000 0.000000 -8.383400 56.346700 -2.344200 5.496718 1.580132 -0.593392 78.836736 0.845444 12.379575 -20.232515 28.943560 -5.514967 0.444260 0.000797 0.813198 -17.384650 6.823336 -2.180700 7.125000 0.000000 0.000000 6.558800 -22.853400 3.519100 
40.563924 106.967958 -15.970170 8.182694 -53.708515 -4.276022 -3.492125 2.054845 3.667116 -22.412704 -6.301264 4.005899 -0.310596 5.708269 18.248381 0.830354 -8.878329 -0.765700 0.686100 -5.295700 -14.753800 0.072414 -1.097512 0.549323 11.114031 14.559822 -23.921471 -2.414565 -10.234360 30.733664 -1.744490 12.075985 8.049508 -0.119700 -2.230900 6.144200 -4.347709 -5.832014 9.637598 5.160423 -8.140323 0.426583 10.367530 -4.110950 -5.283638 -14.858796 -21.597437 9.810117 11.287132 -38.279789 25.830723 1.976200 -17.961800 16.335900 -5.799774 -0.419234 -1.479044 -86.264471 7.622924 19.388746 19.174095 -27.052568 -5.595009 -1.085029 -2.465706 4.692897 19.378934 24.275559 9.465800 -7.125000 0.000000 0.000000 -11.029700 57.963000 -3.527200 5.500806 1.613672 -0.595616 79.015388 0.764618 12.332113 -20.411692 29.153139 -5.603642 0.465867 0.016334 -0.073655 -18.001254 6.671168 -2.210500 7.125000 0.000000 0.000000 6.093500 -22.995900 3.246600 
43.178568 106.885668 -17.498232 8.652059 -53.783151 -4.378915 -3.595149 1.970452 3.647729 -22.982839 -5.074956 2.940532 -0.579527 5.041457 16.310204 0.749032 -7.158485 -1.887585 0.164200 -2.610500 -7.196100 0.097683 -1.029073 0.523741 10.012060 14.343051 -25.152034 -2.066940 -9.672344 28.851053 -1.842040 13.303939 8.342242 -0.039800 1.287700 -3.540600 -4.978031 -5.930330 9.719413 5.125648 -8.356979 0.496078 10.745940 -4.239385 -5.011254 -14.757486 -21.389818 9.264499 10.987659 -38.099737 26.502149 1.821500 -17.817700 16.663600 -5.783554 -0.486544 -1.449046 -85.828082 6.487096 19.182142 19.602722 -27.568794 -5.849930 -0.998507 -2.371849 4.291216 18.724714 22.877179 8.643000 -7.125000 0.000000 0.000000 -11.036400 56.303600 -3.085700 5.505535 1.641434 -0.590368 79.330643 1.114409 11.431627 -20.282244 29.011036 -5.538696 0.445107 -0.001250 1.042970 -17.442501 6.886322 -2.208500 7.125000 0.000000 0.000000 6.514400 -22.785300 3.505100 
45.752970 106.637598 -18.958422 8.743663 -54.187428 -4.533434 -3.697828 1.884840 3.571175 -22.932442 -5.152641 1.563158 -0.660464 4.919443 15.875849 0.863313 -7.306616 -3.452548 0.346100 -3.780200 -10.459000 0.155127 -0.968303 0.500582 9.120347 14.477285 -25.705565 -1.815004 -9.197250 27.256357 -1.953842 14.117485 6.049539 -0.352300 3.813300 -10.552100 -5.058314 -5.795670 9.870801 5.053996 -8.180771 0.710900 10.674631 -4.189810 -4.724633 -14.804294 -21.263321 9.269499 11.304383 -37.827447 26.209341 2.008400 -17.711700 16.566200 -5.754217 -0.530860 -1.415417 -85.307562 5.565197 19.294080 20.068566 -28.130359 -6.122810 -0.976562 -2.358505 4.023883 18.789423 22.811570 8.642800 -7.125000 0.000000 0.000000 -10.939100 56.231600 -3.038900 5.491946 1.676629 -0.578264 79.527022 0.998613 11.431941 -20.475470 29.247747 -5.640869 0.457599 0.019613 0.149615 -17.760989 6.589898 -2.150600 7.125000 0.000000 0.000000 6.278000 -23.096000 3.331500 
48.326166 106.551102 -20.432424 7.856511 -55.022833 -4.015289 -3.777776 1.819293 3.485533 -22.121851 -5.768883 0.214939 -0.698531 4.945883 15.847174 0.976182 -7.713144 -4.182092 0.159000 -2.569400 -7.082100 0.185015 -0.917358 0.483689 9.855127 13.646384 -26.668517 -1.833218 -9.192057 27.179763 -2.118183 15.788386 3.761290 -0.646700 5.144300 -14.320600 -4.584914 -5.568175 10.185523 5.066783 -7.809283 0.908211 10.483020 -4.032034 -4.666461 -14.806664 -21.030582 9.010731 10.886867 -37.450775 26.677247 1.917300 -17.546000 16.705300 -5.706661 -0.562802 -1.392514 -84.570159 5.188846 20.085944 20.606418 -28.798190 -6.458293 -0.933443 -2.360705 3.478260 18.753835 22.886514 8.638200 -7.125000 0.000000 0.000000 -11.030100 56.288900 -3.079900 5.464610 1.688666 -0.581708 79.667172 0.423383 11.745790 -20.875538 29.750869 -5.865626 0.451133 0.014684 -0.007747 -17.610309 6.909526 -2.236100 7.125000 0.000000 0.000000 6.386600 -22.762600 3.438900 
